# xmcd
#
# Track frame offsets:
#	150
#	15965
#	32880
#	47080
#	63170
#	74420
#	98722
#	110065
#	124772
#	135957
#	151675
#	167752
#	181192
#	193485
#
# Disc length: 2775 seconds
#
# Revision: 1
# Processed by: cddbd v1.5.1PL2 Copyright (c) Steve Scherf et al.
# Submitted via: audiograbber 1.83.01
#
DISCID=b60ad50e
DTITLE=Various Artist - Great Soul Ballads CD 1
DYEAR=1997
DGENRE=Soul
TTITLE0=Harold Melvin and The Blue Notes - If you don´t know me by now
TTITLE1=Gladys Knight and The Pips - Best thing that ever happened to me
TTITLE2=Aaron Neville - tell it like it is
TTITLE3=Track The Chi-Lites - Oh girl
TTITLE4=Solomon Burke - If you need me
TTITLE5=Marvin Gaye - Let´s get it on
TTITLE6=Dinah Washington - What a diff´rence a day makes
TTITLE7=Sam and Dave - When something is wrong with my baby
TTITLE8=Jackie Wilson - To be loved
TTITLE9=Al Wilson - Show and tell
TTITLE10=The Righteous Brothers - Unchained Melody
TTITLE11=Ben E. King - Stand by me
TTITLE12=Tyrone Davis - Can i change my mind
TTITLE13=Eddie Holman - Hey there lonely girl
EXTD=Goldies
EXTT0=
EXTT1=
EXTT2=
EXTT3=
EXTT4=
EXTT5=
EXTT6=
EXTT7=
EXTT8=
EXTT9=
EXTT10=
EXTT11=
EXTT12=
EXTT13=
PLAYORDER=
